<svg xmlns="http://www.w3.org/2000/svg" viewBox="0 0 314 118" width="314" height="118">
  <defs>
    <linearGradient id="tealh" x1="0" y1="0" x2="1" y2="1">
      <stop offset="0" stop-color="#16A9A5"/>
      <stop offset="1" stop-color="#0B6E6C"/>
    </linearGradient>
    <linearGradient id="orangeh" x1="0" y1="0" x2="1" y2="1">
      <stop offset="0" stop-color="#FFB05C"/>
      <stop offset="1" stop-color="#F5811F"/>
    </linearGradient>
    <linearGradient id="sheenh" x1="0" y1="0" x2="0" y2="1">
      <stop offset="0" stop-color="#ffffff" stop-opacity="0.28"/>
      <stop offset="0.45" stop-color="#ffffff" stop-opacity="0.05"/>
      <stop offset="1" stop-color="#ffffff" stop-opacity="0"/>
    </linearGradient>
    <radialGradient id="vigh" cx="0.5" cy="0.32" r="0.85">
      <stop offset="0.55" stop-color="#000000" stop-opacity="0"/>
      <stop offset="1" stop-color="#084F4E" stop-opacity="0.45"/>
    </radialGradient>
  </defs>
  <g transform="translate(0,26.0) scale(0.5500)"><rect width="120" height="120" rx="30.6" fill="url(#tealh)"/>
  <rect width="120" height="120" rx="30.6" fill="url(#vigh)"/>
  <rect width="120" height="120" rx="30.6" fill="url(#sheenh)"/>
  <rect x="1" y="1" width="118" height="118" rx="29.6" fill="none" stroke="#ffffff" stroke-opacity="0.10" stroke-width="1.4"/>
  <g transform="translate(25.20,25.20) scale(0.6960)"><mask id="hearth" maskUnits="userSpaceOnUse" x="28" y="48" width="44" height="44">
      <path d="M50 52.5 C40.5 52.5 32.5 58.7 32.5 68 C32.5 74.8 36.2 80 41.4 82.7 C45 84.6 47 86.5 50 86.5 C53 86.5 55 84.6 58.6 82.7 C63.8 80 67.5 74.8 67.5 68 C67.5 58.7 59.5 52.5 50 52.5 Z" fill="white"/>
      <path d="M23.6,0c-3.4,0-6.3,2.7-7.6,5.6C14.7,2.7,11.8,0,8.4,0C3.8,0,0,3.8,0,8.4c0,9.4,9.5,11.9,16,21.2c6.1-8.8,16-12.1,16-21.2C32,3.8,28.2,0,23.6,0z" transform="translate(41.50,64.50) scale(0.5312,0.5405)" fill="black"/>
    </mask><path d="M50 52.5 C40.5 52.5 32.5 58.7 32.5 68 C32.5 74.8 36.2 80 41.4 82.7 C45 84.6 47 86.5 50 86.5 C53 86.5 55 84.6 58.6 82.7 C63.8 80 67.5 74.8 67.5 68 C67.5 58.7 59.5 52.5 50 52.5 Z" fill="#FFFFFF" mask="url(#hearth)"/><g transform="rotate(-20 22 47)"><ellipse cx="22" cy="47" rx="8.6" ry="11.4" fill="#FFFFFF"/></g><g transform="rotate(-7 40 32.5)"><ellipse cx="40" cy="32.5" rx="8.9" ry="12.4" fill="#FFFFFF"/></g><g transform="rotate(7 60 32.5)"><ellipse cx="60" cy="32.5" rx="8.9" ry="12.4" fill="url(#orangeh)"/></g><g transform="rotate(20 78 47)"><ellipse cx="78" cy="47" rx="8.6" ry="11.4" fill="#FFFFFF"/></g></g></g>
  <g transform="translate(88.0,58)" fill="#143238"><path transform="translate(0.000,-0.000) scale(0.04800,-0.04800)" d="M926 226Q960 226 960 182Q960 158 949.5 141.5Q939 125 917 121Q826 104 738 83L735 59Q707 -138 623.5 -232.5Q540 -327 415 -327Q332 -327 286.5 -286.5Q241 -246 241 -183Q241 -78 335.0 4.0Q429 86 620 149L640 290Q644 314 650 354Q603 230 530.0 169.0Q457 108 367 108Q281 108 236.0 160.5Q191 213 191 296Q191 333 199.0 377.5Q207 422 224 498Q239 567 246.5 608.0Q254 649 254 681Q254 729 217 729Q188 729 148.5 700.5Q109 672 65 613Q51 594 34 594Q20 594 9.5 607.5Q-1 621 -1 638Q-1 669 27 708Q129 848 266 848Q327 848 361.5 811.0Q396 774 396 702Q396 650 386.5 595.5Q377 541 358 457Q346 407 340.0 376.5Q334 346 334 326Q334 275 352.0 253.0Q370 231 415 231Q469 231 525.5 290.5Q582 350 627.5 471.0Q673 592 693 767Q698 811 716.0 829.5Q734 848 768 848Q838 848 838 778Q838 766 837 759Q816 610 798 490Q788 418 776.5 342.0Q765 266 754 188Q827 208 908 224Q914 226 926 226ZM605 44Q363 -40 363 -160Q363 -188 380.5 -206.5Q398 -225 430 -225Q569 -225 604 37Z"/><path transform="translate(40.848,-0.000) scale(0.04800,-0.04800)" d="M522 178Q522 138 503 116Q466 71 398.5 33.0Q331 -5 254 -5Q149 -5 91.0 52.0Q33 109 33 208Q33 277 62.0 336.5Q91 396 142.5 431.0Q194 466 259 466Q317 466 352.0 431.5Q387 397 387 338Q387 269 337.5 219.5Q288 170 170 141Q195 95 265 95Q310 95 367.5 126.5Q425 158 467 209Q479 223 494 223Q507 223 514.5 211.0Q522 199 522 178ZM154 221V219Q213 233 247.0 261.0Q281 289 281 326Q281 345 270.5 356.5Q260 368 242 368Q205 368 179.5 325.0Q154 282 154 221Z"/><path transform="translate(59.712,-0.000) scale(0.04800,-0.04800)" d="M71 606Q71 641 98.5 664.5Q126 688 167 688Q204 688 227.0 670.0Q250 652 250 619Q250 579 224.0 555.5Q198 532 155 532Q113 532 92.0 551.5Q71 571 71 606ZM363 177Q363 154 356.0 141.0Q349 128 334 118Q264 72 147 -9Q108 -217 46.0 -336.0Q-16 -455 -112 -455Q-164 -455 -195.5 -423.5Q-227 -392 -227 -341Q-227 -270 -172.0 -189.5Q-117 -109 35 9L42 60Q56 156 64 249Q70 303 83 410Q87 439 105.0 452.5Q123 466 160 466Q190 466 199.5 457.0Q209 448 209 432Q209 386 176 178L166 109Q246 169 312 213Q325 221 335 221Q348 221 355.5 208.5Q363 196 363 177ZM14 -109Q-62 -174 -95.5 -226.5Q-129 -279 -129 -319Q-129 -358 -101 -358Q-75 -358 -44.0 -299.0Q-13 -240 14 -109Z"/><path transform="translate(71.376,-0.000) scale(0.04800,-0.04800)" d="M48 140Q48 215 58.0 277.5Q68 340 91 410Q101 440 119.0 453.0Q137 466 176 466Q198 466 206.5 459.0Q215 452 215 438Q215 430 204 384Q194 347 188 317Q168 212 168 177Q168 156 173.0 147.5Q178 139 189 139Q204 139 226.5 169.0Q249 199 274.5 260.0Q300 321 324 410Q332 440 348.5 453.0Q365 466 398 466Q421 466 430.0 460.5Q439 455 439 440Q439 415 414 303Q386 175 386 145Q386 126 394.0 115.5Q402 105 415 105Q435 105 462.5 129.5Q490 154 536 209Q548 223 563 223Q576 223 583.5 211.0Q591 199 591 178Q591 138 572 116Q529 63 479.5 29.0Q430 -5 367 -5Q319 -5 296.5 32.0Q274 69 274 136Q257 68 223.0 31.5Q189 -5 150 -5Q105 -5 76.5 36.5Q48 78 48 140Z"/><path transform="translate(93.552,-0.000) scale(0.04800,-0.04800)" d="M127 51Q127 77 146.0 96.0Q165 115 202 115Q215 115 232.5 112.5Q250 110 259 109Q258 135 247.5 158.0Q237 181 221.0 202.5Q205 224 191 240Q160 181 129.5 142.0Q99 103 63 68Q45 50 25 50Q9 50 -1.0 61.5Q-11 73 -11 90Q-11 110 3 127L16 143Q71 211 99 255Q117 284 135.5 324.0Q154 364 184 433Q203 477 263 477Q291 477 302.0 472.0Q313 467 313 456Q313 450 309.0 437.0Q305 424 298 411Q280 375 280 350Q280 335 290.5 317.0Q301 299 323 272Q355 230 371.5 200.5Q388 171 388 136Q388 94 368.5 56.5Q349 19 314.0 -4.0Q279 -27 234 -27Q182 -27 154.5 -3.0Q127 21 127 51Z"/></g>
  <g transform="translate(208.1,58)" fill="url(#orangeh)"><path transform="translate(0.000,-0.000) scale(0.04800,-0.04800)" d="M451 271 408 30Q383 -109 272 -109Q211 -109 159.5 -73.0Q108 -37 77.0 37.0Q46 111 46 219Q46 422 111.5 563.5Q177 705 287.5 775.5Q398 846 531 846Q625 846 690.5 813.0Q756 780 789.5 723.5Q823 667 823 596Q823 511 779.0 440.0Q735 369 651.0 324.0Q567 279 451 271ZM674 587Q674 653 630.5 694.5Q587 736 496 736Q393 736 316.5 671.0Q240 606 198.5 490.5Q157 375 157 227Q157 165 169.5 117.0Q182 69 201.5 42.5Q221 16 239 16Q264 16 277 85L310 274Q271 280 276 279Q246 284 237.0 297.5Q228 311 228 332Q228 354 240.5 367.0Q253 380 275 380Q285 380 290 379Q314 375 327 374Q340 452 364 583Q370 617 391.5 631.5Q413 646 442 646Q475 646 489.5 633.5Q504 621 504 594Q504 578 502 568L469 374Q674 400 674 587Z"/><path transform="translate(34.560,-0.000) scale(0.04800,-0.04800)" d="M35 158Q35 238 72.0 309.5Q109 381 170.5 424.5Q232 468 301 468Q323 468 330.5 459.5Q338 451 343 429Q364 433 387 433Q436 433 436 398Q436 377 421 298Q398 183 398 138Q398 123 405.5 114.0Q413 105 425 105Q444 105 471.0 129.5Q498 154 544 209Q556 223 571 223Q584 223 591.5 211.0Q599 199 599 178Q599 138 580 116Q539 65 493.0 30.0Q447 -5 404 -5Q371 -5 343.5 17.5Q316 40 302 79Q250 -5 171 -5Q109 -5 72.0 40.0Q35 85 35 158ZM278 191 315 375Q273 374 237.5 343.5Q202 313 181.0 263.0Q160 213 160 157Q160 126 172.5 111.0Q185 96 207 96Q229 96 249.0 122.0Q269 148 278 191Z"/><path transform="translate(57.600,-0.000) scale(0.04800,-0.04800)" d="M702 432Q702 420 694 399Q613 210 541 94Q505 37 476.0 16.0Q447 -5 410 -5Q370 -5 350.5 26.0Q331 57 326 128Q324 154 322 206Q291 120 265.5 74.5Q240 29 215.5 12.0Q191 -5 157 -5Q116 -5 92.5 27.0Q69 59 63 128Q51 268 51 373V408Q52 442 68.0 454.5Q84 467 120 467Q146 467 158.5 455.5Q171 444 171 417Q171 302 185 118Q218 188 246.0 252.0Q274 316 311 416Q322 446 337.5 456.5Q353 467 374 467Q402 467 416.0 455.5Q430 444 430 417V262Q430 162 431 118Q477 198 506.5 257.0Q536 316 573 416Q584 446 602.0 456.5Q620 467 647 467Q702 467 702 432Z"/></g>
  <g transform="translate(91.0,92)" fill="#6E8A8E" letter-spacing="0"><path transform="translate(0.000,-0.000) scale(0.01050,-0.01050)" d="M134 -7Q109 -7 95.5 7.0Q82 21 82 46V652Q82 678 96.0 691.5Q110 705 135 705H374Q488 705 550.0 648.5Q612 592 612 490Q612 387 550.0 330.5Q488 274 374 274H186V46Q186 21 173.0 7.0Q160 -7 134 -7ZM186 357H359Q434 357 472.5 390.5Q511 424 511 490Q511 555 472.5 588.5Q434 622 359 622H186Z"/><path transform="translate(6.741,-0.000) scale(0.01050,-0.01050)" d="M138 0Q111 0 96.5 14.5Q82 29 82 56V649Q82 676 96.5 690.5Q111 705 138 705H503Q524 705 535.0 694.5Q546 684 546 664Q546 643 535.0 632.0Q524 621 503 621H182V400H481Q503 400 513.5 389.0Q524 378 524 358Q524 337 513.5 326.5Q503 316 481 316H182V84H503Q524 84 535.0 73.0Q546 62 546 42Q546 21 535.0 10.5Q524 0 503 0Z"/><path transform="translate(12.831,-0.000) scale(0.01050,-0.01050)" d="M306 -7Q281 -7 267.5 7.0Q254 21 254 46V618H42Q21 618 9.0 629.5Q-3 641 -3 662Q-3 683 9.0 694.0Q21 705 42 705H569Q591 705 603.0 694.0Q615 683 615 662Q615 641 603.0 629.5Q591 618 569 618H357V46Q357 21 344.5 7.0Q332 -7 306 -7Z"/><path transform="translate(24.791,-0.000) scale(0.01050,-0.01050)" d="M398 -9Q291 -9 215.0 35.0Q139 79 98.5 160.5Q58 242 58 353Q58 436 81.0 502.5Q104 569 147.5 616.5Q191 664 254.5 689.0Q318 714 398 714Q457 714 511.5 698.0Q566 682 606 652Q623 641 628.5 625.5Q634 610 630.5 596.0Q627 582 617.0 572.5Q607 563 591.5 562.0Q576 561 558 573Q525 598 485.0 610.0Q445 622 401 622Q325 622 273.0 590.5Q221 559 194.0 499.0Q167 439 167 353Q167 267 194.0 206.5Q221 146 273.0 114.5Q325 83 401 83Q445 83 485.5 95.5Q526 108 562 133Q580 144 594.5 143.0Q609 142 619.0 133.0Q629 124 632.5 110.5Q636 97 631.5 82.5Q627 68 612 58Q571 25 515.0 8.0Q459 -9 398 -9Z"/><path transform="translate(31.721,-0.000) scale(0.01050,-0.01050)" d="M78 -7Q58 -7 46.0 2.0Q34 11 32.0 26.0Q30 41 38 60L309 668Q319 692 334.5 702.0Q350 712 369 712Q387 712 402.5 702.0Q418 692 428 668L699 60Q708 41 706.0 25.5Q704 10 693.0 1.5Q682 -7 662 -7Q640 -7 627.0 4.0Q614 15 604 38L534 200L581 172H155L201 200L132 38Q122 14 110.0 3.5Q98 -7 78 -7ZM367 590 216 232 191 256H544L521 232L369 590Z"/><path transform="translate(39.449,-0.000) scale(0.01050,-0.01050)" d="M134 -7Q109 -7 95.5 7.0Q82 21 82 46V652Q82 678 96.0 691.5Q110 705 135 705H374Q488 705 550.0 651.0Q612 597 612 498Q612 434 584.0 388.0Q556 342 502.5 318.0Q449 294 374 294L383 308H409Q449 308 478.5 288.0Q508 268 532 224L618 64Q628 46 627.5 29.5Q627 13 615.5 3.0Q604 -7 583 -7Q561 -7 547.5 2.5Q534 12 523 31L418 225Q397 264 370.0 277.5Q343 291 299 291H186V46Q186 21 173.0 7.0Q160 -7 134 -7ZM186 369H357Q433 369 472.0 401.0Q511 433 511 496Q511 558 472.0 590.0Q433 622 357 622H186Z"/><path transform="translate(46.557,-0.000) scale(0.01050,-0.01050)" d="M138 0Q111 0 96.5 14.5Q82 29 82 56V649Q82 676 96.5 690.5Q111 705 138 705H503Q524 705 535.0 694.5Q546 684 546 664Q546 643 535.0 632.0Q524 621 503 621H182V400H481Q503 400 513.5 389.0Q524 378 524 358Q524 337 513.5 326.5Q503 316 481 316H182V84H503Q524 84 535.0 73.0Q546 62 546 42Q546 21 535.0 10.5Q524 0 503 0Z"/><path transform="translate(58.286,-0.000) scale(0.01050,-0.01050)" d="M132 -7Q109 -7 96.5 6.0Q84 19 84 42V663Q84 687 97.0 699.5Q110 712 132 712Q153 712 164.5 704.5Q176 697 186 678L448 189H417L678 678Q688 697 699.0 704.5Q710 712 731 712Q753 712 765.0 699.5Q777 687 777 663V42Q777 19 765.5 6.0Q754 -7 731 -7Q708 -7 696.0 6.0Q684 19 684 42V558H706L474 129Q466 114 457.0 107.0Q448 100 432 100Q416 100 406.0 107.5Q396 115 388 129L154 559H178V42Q178 19 166.5 6.0Q155 -7 132 -7Z"/><path transform="translate(67.326,-0.000) scale(0.01050,-0.01050)" d="M78 -7Q58 -7 46.0 2.0Q34 11 32.0 26.0Q30 41 38 60L309 668Q319 692 334.5 702.0Q350 712 369 712Q387 712 402.5 702.0Q418 692 428 668L699 60Q708 41 706.0 25.5Q704 10 693.0 1.5Q682 -7 662 -7Q640 -7 627.0 4.0Q614 15 604 38L534 200L581 172H155L201 200L132 38Q122 14 110.0 3.5Q98 -7 78 -7ZM367 590 216 232 191 256H544L521 232L369 590Z"/><path transform="translate(75.054,-0.000) scale(0.01050,-0.01050)" d="M131 -7Q108 -7 95.0 6.0Q82 19 82 43V660Q82 685 94.5 698.5Q107 712 128 712Q146 712 155.5 705.5Q165 699 178 682L590 139H565V663Q565 686 577.5 699.0Q590 712 613 712Q637 712 649.0 699.0Q661 686 661 663V42Q661 19 649.5 6.0Q638 -7 619 -7Q601 -7 589.5 0.0Q578 7 565 24L155 566H178V43Q178 19 166.0 6.0Q154 -7 131 -7Z"/><path transform="translate(82.856,-0.000) scale(0.01050,-0.01050)" d="M78 -7Q58 -7 46.0 2.0Q34 11 32.0 26.0Q30 41 38 60L309 668Q319 692 334.5 702.0Q350 712 369 712Q387 712 402.5 702.0Q418 692 428 668L699 60Q708 41 706.0 25.5Q704 10 693.0 1.5Q682 -7 662 -7Q640 -7 627.0 4.0Q614 15 604 38L534 200L581 172H155L201 200L132 38Q122 14 110.0 3.5Q98 -7 78 -7ZM367 590 216 232 191 256H544L521 232L369 590Z"/><path transform="translate(90.437,-0.000) scale(0.01050,-0.01050)" d="M412 -9Q297 -9 218.0 34.5Q139 78 98.5 159.0Q58 240 58 352Q58 436 81.5 502.5Q105 569 149.5 616.5Q194 664 258.5 689.0Q323 714 405 714Q465 714 523.0 698.5Q581 683 629 648Q643 638 647.0 625.0Q651 612 647.5 598.5Q644 585 634.5 575.0Q625 565 611.5 563.0Q598 561 582 571Q543 598 500.0 610.5Q457 623 405 623Q327 623 273.5 591.0Q220 559 193.0 498.5Q166 438 166 352Q166 219 229.0 150.0Q292 81 416 81Q461 81 504.5 89.5Q548 98 588 114L567 62V295H438Q418 295 406.5 305.5Q395 316 395 335Q395 354 406.5 363.5Q418 373 438 373H611Q632 373 643.0 362.0Q654 351 654 330V78Q654 60 647.5 47.5Q641 35 626 29Q583 12 525.0 1.5Q467 -9 412 -9Z"/><path transform="translate(98.112,-0.000) scale(0.01050,-0.01050)" d="M138 0Q111 0 96.5 14.5Q82 29 82 56V649Q82 676 96.5 690.5Q111 705 138 705H503Q524 705 535.0 694.5Q546 684 546 664Q546 643 535.0 632.0Q524 621 503 621H182V400H481Q503 400 513.5 389.0Q524 378 524 358Q524 337 513.5 326.5Q503 316 481 316H182V84H503Q524 84 535.0 73.0Q546 62 546 42Q546 21 535.0 10.5Q524 0 503 0Z"/><path transform="translate(104.297,-0.000) scale(0.01050,-0.01050)" d="M132 -7Q109 -7 96.5 6.0Q84 19 84 42V663Q84 687 97.0 699.5Q110 712 132 712Q153 712 164.5 704.5Q176 697 186 678L448 189H417L678 678Q688 697 699.0 704.5Q710 712 731 712Q753 712 765.0 699.5Q777 687 777 663V42Q777 19 765.5 6.0Q754 -7 731 -7Q708 -7 696.0 6.0Q684 19 684 42V558H706L474 129Q466 114 457.0 107.0Q448 100 432 100Q416 100 406.0 107.5Q396 115 388 129L154 559H178V42Q178 19 166.5 6.0Q155 -7 132 -7Z"/><path transform="translate(113.337,-0.000) scale(0.01050,-0.01050)" d="M138 0Q111 0 96.5 14.5Q82 29 82 56V649Q82 676 96.5 690.5Q111 705 138 705H503Q524 705 535.0 694.5Q546 684 546 664Q546 643 535.0 632.0Q524 621 503 621H182V400H481Q503 400 513.5 389.0Q524 378 524 358Q524 337 513.5 326.5Q503 316 481 316H182V84H503Q524 84 535.0 73.0Q546 62 546 42Q546 21 535.0 10.5Q524 0 503 0Z"/><path transform="translate(119.522,-0.000) scale(0.01050,-0.01050)" d="M131 -7Q108 -7 95.0 6.0Q82 19 82 43V660Q82 685 94.5 698.5Q107 712 128 712Q146 712 155.5 705.5Q165 699 178 682L590 139H565V663Q565 686 577.5 699.0Q590 712 613 712Q637 712 649.0 699.0Q661 686 661 663V42Q661 19 649.5 6.0Q638 -7 619 -7Q601 -7 589.5 0.0Q578 7 565 24L155 566H178V43Q178 19 166.0 6.0Q154 -7 131 -7Z"/><path transform="translate(127.323,-0.000) scale(0.01050,-0.01050)" d="M306 -7Q281 -7 267.5 7.0Q254 21 254 46V618H42Q21 618 9.0 629.5Q-3 641 -3 662Q-3 683 9.0 694.0Q21 705 42 705H569Q591 705 603.0 694.0Q615 683 615 662Q615 641 603.0 629.5Q591 618 569 618H357V46Q357 21 344.5 7.0Q332 -7 306 -7Z"/></g>
</svg>